<?xml version="1.0" standalone="no"?><!DOCTYPE svg PUBLIC "-//W3C//DTD SVG 1.1//EN" "http://www.w3.org/Graphics/SVG/1.1/DTD/svg11.dtd"><svg t="1594113101870" class="icon" viewBox="0 0 1024 1024" version="1.1" xmlns="http://www.w3.org/2000/svg" p-id="4102" xmlns:xlink="http://www.w3.org/1999/xlink" width="200" height="200"><defs><style type="text/css"></style></defs><path d="M122.7 229.4h781.1c20.7 0 37.5-16.8 37.5-37.5s-16.8-37.5-37.5-37.5H122.7c-20.7 0-37.5 16.8-37.5 37.5s16.8 37.5 37.5 37.5zM903.8 473.1H122.7c-20.7 0-37.5 16.8-37.5 37.5s16.8 37.5 37.5 37.5h781.1c20.7 0 37.5-16.8 37.5-37.5-0.1-20.7-16.9-37.5-37.5-37.5zM903.8 791H122.7c-20.7 0-37.5 16.8-37.5 37.5S102 866 122.7 866h781.1c20.7 0 37.5-16.8 37.5-37.5S924.4 791 903.8 791z" p-id="4103"></path></svg>